<svg xmlns="http://www.w3.org/2000/svg" width="510" height="194" viewBox="0 0 510 194" fill="none"><path d="M67.0108 0.884766H55.053V48.7616H67.0108V0.884766Z" fill="white"></path><path d="M127.297 24.8233C127.297 40.2497 139.098 49.626 152.547 49.626C156.242 49.6026 159.912 49.0198 163.432 47.8974V35.0639C160.35 36.7522 156.898 37.6519 153.385 37.683C151.671 37.7663 149.959 37.4951 148.355 36.8864C146.751 36.2777 145.289 35.3446 144.061 34.1452C142.834 32.9458 141.866 31.506 141.219 29.9156C140.572 28.3253 140.26 26.6185 140.302 24.9018C140.26 23.1852 140.572 21.4784 141.219 19.888C141.866 18.2977 142.834 16.8579 144.061 15.6585C145.289 14.4591 146.751 13.526 148.355 12.9173C149.959 12.3086 151.671 12.0374 153.385 12.1207C156.9 12.1353 160.356 13.036 163.432 14.7398V1.74913C159.914 0.61922 156.242 0.0362423 152.547 0.0205378C149.235 -0.11633 145.929 0.427973 142.835 1.61984C139.741 2.8117 136.924 4.62581 134.558 6.95015C132.191 9.27449 130.326 12.0597 129.077 15.1338C127.829 18.2079 127.223 21.5056 127.297 24.8233Z" fill="white"></path><path d="M2.48563 24.8233C2.48563 40.2497 14.2864 49.626 27.7095 49.626C31.4126 49.6 35.0907 49.0173 38.6207 47.8974V35.0639C35.5402 36.7573 32.0874 37.6573 28.573 37.683C26.8595 37.7663 25.1473 37.4951 23.5432 36.8864C21.9391 36.2777 20.4776 35.3446 19.2499 34.1452C18.0222 32.9459 17.0547 31.506 16.4078 29.9157C15.7609 28.3253 15.4485 26.6185 15.4901 24.9019C15.4485 23.1852 15.7609 21.4784 16.4078 19.8881C17.0547 18.2977 18.0222 16.8579 19.2499 15.6585C20.4776 14.4592 21.9391 13.526 23.5432 12.9173C25.1473 12.3086 26.8595 12.0374 28.573 12.1207C32.0888 12.1353 35.5444 13.036 38.6207 14.7398V1.74916C35.0934 0.617815 31.4135 0.0348353 27.7095 0.0205685C24.3992 -0.112624 21.0966 0.434402 18.0056 1.62791C14.9146 2.82142 12.1006 4.63611 9.73716 6.96007C7.37373 9.28403 5.511 12.068 4.26382 15.1402C3.01665 18.2125 2.41148 21.5079 2.48563 24.8233Z" fill="white"></path><path d="M201.058 0.0204273C197.773 -0.0609902 194.506 0.522265 191.451 1.73524C188.397 2.94822 185.618 4.76594 183.283 7.07949C180.947 9.39303 179.102 12.1548 177.858 15.1992C176.614 18.2436 175.997 21.5081 176.044 24.797C176.254 31.3008 178.983 37.468 183.653 41.9944C188.324 46.5207 194.57 49.0515 201.071 49.0515C207.573 49.0515 213.819 46.5207 218.489 41.9944C223.16 37.468 225.889 31.3008 226.099 24.797C226.142 21.5069 225.522 18.2418 224.275 15.1973C223.028 12.1527 221.181 9.39126 218.843 7.07809C216.505 4.76492 213.725 2.94761 210.669 1.73493C207.614 0.52225 204.345 -0.0608841 201.058 0.0204273ZM201.058 37.3948C199.413 37.4021 197.783 37.0797 196.265 36.4466C194.746 35.8135 193.369 34.8824 192.216 33.7083C191.063 32.5342 190.156 31.1409 189.549 29.6104C188.942 28.0799 188.647 26.4433 188.682 24.797C188.682 21.5114 189.986 18.3604 192.307 16.0371C194.628 13.7139 197.776 12.4087 201.058 12.4087C204.341 12.4087 207.489 13.7139 209.81 16.0371C212.131 18.3604 213.435 21.5114 213.435 24.797C213.473 26.4454 213.181 28.0849 212.576 29.6184C211.971 31.152 211.064 32.5485 209.91 33.7254C208.756 34.9023 207.379 35.8357 205.858 36.4704C204.338 37.1052 202.706 37.4284 201.058 37.4209V37.3948Z" fill="white"></path><path d="M104.402 19.847L101.105 18.7993C99.1426 18.1708 95.6363 17.1493 95.6363 14.2421C95.6363 11.9373 98.2529 10.3135 103.015 10.3135C106.185 10.4248 109.33 10.9172 112.382 11.7802V1.53958C108.562 0.593872 104.647 0.0842689 100.713 0.0205078C89.6967 0.0205078 83.0505 6.0444 83.0505 15.0017C83.0505 22.8589 88.6239 26.8661 95.27 28.9876L97.8866 29.8257C100.843 30.7686 103.12 32.1567 103.12 34.5924C103.12 37.0282 100.503 39.071 94.4327 39.071C90.6127 38.9647 86.8223 38.3662 83.1552 37.2901V48.3164C87.4075 49.1368 91.7247 49.5751 96.055 49.626C105.187 49.626 115.679 45.5664 115.679 33.5448C115.706 27.7042 112.173 22.3351 104.402 19.847Z" fill="white"></path><path d="M0.104602 187.468V172.409C7.69271 177.647 19.8075 180.004 27.6834 180.004C39.7721 180.004 47.0985 174.085 47.0985 166.62C47.0985 147.606 -6.10352e-05 153.263 -6.10352e-05 123.825C-6.10352e-05 110.991 9.001 95.0146 33.2044 95.0146C41.0542 95.0146 50.7879 96.5861 57.1201 100.803V115.784C49.9141 111.353 41.6597 108.921 33.2044 108.739C21.0373 108.739 15.8041 115.496 15.8041 121.991C15.8041 141.268 62.6672 135.506 62.6672 165.232C62.7196 180.737 49.8198 193.833 27.1078 193.833C17.8451 193.833 6.14892 191.711 0.104602 187.468Z" fill="white"></path><path d="M88.0483 96.6384H117.851C140.668 96.6384 153.175 110.31 153.175 127.622C153.175 145.641 138.418 159.051 116.543 159.051H103.722V192.13H88.0222L88.0483 96.6384ZM117.014 145.93C128.972 145.93 137.423 138.465 137.423 128.041C137.423 117.617 130.385 110.31 118.139 110.31H103.643V145.93H117.014Z" fill="white"></path><path d="M223.797 168.192H183.711L174.71 192.13H158.382L196.349 96.6384H212.048L250.12 192.13H232.824L223.797 168.192ZM219.035 155.646L203.675 114.815L188.342 155.646H219.035Z" fill="white"></path><path d="M262.784 145.354C262.784 117.329 283.716 94.9363 312.865 94.9363C321.029 94.9363 332.28 96.6387 338.325 101.851V117.068C330.787 111.639 321.733 108.725 312.447 108.739C292.325 108.739 278.666 124.453 278.666 144.096C278.666 163.74 291.749 180.004 313.86 180.004C322.456 180.16 330.927 177.92 338.325 173.535V186.919C331.443 191.842 321.317 193.807 312.159 193.807C281.623 193.833 262.784 171.99 262.784 145.354Z" fill="white"></path><path d="M364.491 96.6384H421.062V110.31H379.981V137.208H418.759V150.303H379.981V178.459H420.905V192.13H364.491V96.6384Z" fill="white"></path><path d="M446.809 187.468V172.409C454.397 177.647 466.511 180.004 474.387 180.004C486.476 180.004 493.803 174.085 493.803 166.62C493.803 147.606 446.704 153.263 446.704 123.825C446.704 110.991 455.705 95.0146 479.908 95.0146C487.758 95.0146 497.492 96.5861 503.824 100.803V115.784C496.618 111.353 488.364 108.921 479.908 108.739C467.663 108.739 462.325 115.496 462.325 121.991C462.325 141.268 509.162 135.506 509.162 165.232C509.424 180.737 496.471 193.833 473.707 193.833C464.523 193.833 452.774 191.711 446.809 187.468Z" fill="white"></path></svg>